<svg xmlns="http://www.w3.org/2000/svg" viewBox="0 0 384 1024" aria-hidden="true"><path fill="#5CBCBB" d="M247.317154,921.078003 C246.435806,929.863342 244.652359,937.944092 241.008560,945.557556 C235.545486,956.972107 226.677811,964.322449 214.384460,967.040161 C202.963943,969.564880 191.477554,969.390076 180.519501,964.781921 C168.384308,959.678650 161.795914,949.644470 157.990662,937.601379 C153.694763,924.005615 152.258408,909.888062 152.113510,895.744080 C151.833740,868.434021 153.649368,841.194214 155.374557,813.939331 C156.815002,791.182678 158.947006,768.495239 160.826675,745.784302 C162.362091,727.232849 164.668900,708.746460 166.490585,690.217224 C168.313171,671.678833 170.016647,653.128174 171.666061,634.573486 C173.668869,612.043762 175.679871,589.513611 177.452881,566.965149 C178.431137,554.524231 179.041611,542.050842 179.621201,529.582886 C180.983093,500.287811 181.585785,470.968811 180.593658,441.658203 C179.657349,413.996552 173.673553,388.084595 152.071472,368.384979 C145.425644,362.324432 138.871750,356.138092 131.924347,350.437622 C105.059708,328.394775 91.016273,299.566254 85.486664,265.723816 C82.218803,245.723785 80.809555,225.665146 81.811569,205.537979 C83.965233,162.278198 93.883095,121.188118 119.255608,85.158890 C134.528549,63.471130 154.374863,47.687328 181.130035,42.758171 C221.074020,35.399212 252.636948,50.031097 277.252563,81.135323 C297.584625,106.826828 308.206818,136.827057 314.259583,168.587479 C319.196960,194.495392 321.584686,220.698837 319.135010,247.025253 C316.437958,276.009888 309.768250,303.857605 291.628265,327.674133 C282.888000,339.149475 272.370087,348.869904 261.258026,357.949707 C243.819717,372.198761 230.047333,388.890198 224.883530,411.437042 C221.748123,425.127258 220.894302,439.105988 220.403885,453.062866 C219.508347,478.549561 220.070953,504.065552 221.535416,529.497620 C223.160370,557.716919 224.205063,585.979736 227.050354,614.136597 C229.273239,636.134155 230.477936,658.232483 232.401855,680.262817 C234.078751,699.464294 236.210266,718.625549 237.985672,737.818970 C239.226074,751.228760 240.280960,764.656982 241.282730,778.087097 C242.866333,799.317688 244.394257,820.552917 245.824966,841.794250 C246.395523,850.265442 246.887390,858.755310 246.989746,867.241821 C247.204361,885.033936 249.668472,902.815735 247.317154,921.078003 z"/></svg>
